
        <svg xmlns="http://www.w3.org/2000/svg" xmlns:xlink="http://www.w3.org/1999/xlink" version="1.1" width="3171.4285714285716" 
        height="1610.1257037839955" viewBox="0 0 3171.4285714285716 1610.1257037839955">
			
			<g transform="scale(8.571428571428571) translate(10, 10)">
				<defs id="SvgjsDefs1153"></defs><g id="SvgjsG1154" featureKey="symbolContainer" transform="matrix(2.072,0,0,2.072,123,20)" fill="#0278ae"><circle cx="25" cy="25" r="25"></circle></g><g id="SvgjsG1155" featureKey="monogramFeature-0" transform="matrix(1.3363113210792954,0,0,1.3363113210792954,133.99106635536356,21.955336555839498)" fill="#ffffff"><path d="M30 44.16 l-2.34 10.44 c-0.06 0.42 -0.42 1.02 -0.96 1.02 l-8.64 0 c-0.54 0 -0.9 -0.72 -0.96 -1.2 l-6.48 -30.66 l-0.06 -0.06 l-1.68 -0.54 c-0.42 -0.12 -0.78 -0.66 -0.78 -1.14 l0 -5.88 c0 -0.42 0.42 -1.14 0.9 -1.14 l10.8 0 c0.6 0 0.96 0.78 0.96 1.26 l0 3.12 l0.18 0 s-0.12 0.12 -0.18 0.12 l0 0.96 c0.06 0 0.06 -0.06 0.12 -0.06 l1.38 -1.02 l0.96 0 l-2.46 1.8 l0 0.96 l3.12 -2.34 l0 0.66 l-4.08 3.06 l0 -0.24 l-0.06 0 c-0.18 0.06 -1.08 0.24 -1.08 0.36 l2.04 10.14 l0.06 0 l3.78 -2.82 l-0.18 0.84 l0 0.06 l-3.48 2.58 l0.12 0.84 l3.12 -2.28 l0 0.06 l-0.18 0.78 l-2.76 2.04 l0 0.12 l0.12 0.66 l0.06 0.06 l2.28 -1.74 l0.06 0 l-0.18 0.84 l-2.04 1.5 c0 0.18 0.12 0.66 0.12 0.84 l1.62 -1.2 l-0.18 0.9 l-1.32 0.96 l0.18 0.84 c0.12 -0.12 0.72 -0.54 0.9 -0.66 l-0.18 0.84 l-0.54 0.42 l-0.06 0.06 l0.18 0.78 s0.12 -0.12 0.18 -0.12 l0 0.06 l-0.12 0.42 l0.36 1.74 l4.32 -19.56 c0 -0.18 -2.04 -0.24 -2.04 -1.74 l0 -5.7 c0 -0.48 0.42 -1.2 0.96 -1.2 l14.46 0 c0.54 0 0.96 0.72 0.96 1.2 l0 4.02 l1.08 -0.84 l1.02 0 l-2.1 1.56 l0 0.96 l3.24 -2.46 l0 0.78 l-4.14 3.06 c-0.24 0 -1.14 0.3 -1.14 0.3 l2.1 9.9 l3.96 -2.94 l0 0.06 c0 0.06 -0.12 0.78 -0.18 0.84 l-3.66 2.7 l0.18 0.78 l3.24 -2.4 c0 0.12 -0.12 0.66 -0.12 0.78 c0 0 0 0.06 -0.06 0.12 l-2.88 2.16 l0.18 0.78 l0 0 l2.52 -1.86 l-0.18 0.84 l-0.06 0.06 l-2.16 1.62 l0.18 0.78 l1.8 -1.32 l-0.18 0.84 l-1.5 1.08 l0 0.12 l0.18 0.72 c0.18 -0.12 0.9 -0.66 1.08 -0.78 l-0.18 0.84 l-0.72 0.6 l-0.06 0 l0.18 0.78 c0.12 -0.06 0.3 -0.18 0.3 -0.18 l0.06 0 l-0.18 0.78 l0 0.12 l0.36 1.74 l4.08 -19.5 l0 -0.06 s-0.18 -0.06 -0.24 -0.06 c-0.72 -0.24 -1.8 -0.48 -1.8 -1.44 l0 -5.94 c0 -0.42 0.48 -1.14 0.96 -1.14 l10.8 0 c0.48 0 0.9 0.66 0.9 1.08 l0 6 c0 0.48 -0.36 0.96 -0.78 1.08 l-1.68 0.54 l-0.06 0.06 l-6.78 30.84 c-0.06 0.42 -0.42 1.02 -0.9 1.02 l-8.76 0 c-0.54 0 -0.84 -0.66 -0.96 -1.08 l-5.16 -24.3 l-0.72 3.24 l0 0.06 c0.06 -0.06 0.12 -0.12 0.18 -0.12 c0.06 0.18 0.12 0.48 0.12 0.6 c-0.12 0.06 -0.48 0.24 -0.48 0.42 l-0.24 1.02 l0 0.06 l0.9 -0.72 c0.06 0.24 0.12 0.6 0.12 0.66 l-1.2 0.9 c-0.06 0 -0.06 0.06 -0.06 0.06 l-0.24 1.08 l1.68 -1.26 c0.06 0.24 0.18 0.66 0.18 0.66 l-1.98 1.44 c-0.06 0.06 -0.06 0.06 -0.06 0.12 l-0.24 1.02 l2.4 -1.74 l0.06 0 l0.12 0.54 c0 0.06 -0.06 0.06 -0.06 0.06 l-2.7 2.04 l-0.24 1.14 l3.12 -2.34 l0.06 0 l0.12 0.6 l-0.06 0 l-3.48 2.58 l-0.24 1.14 l3.96 -2.88 c0.06 0.18 0.06 0.42 0.12 0.6 l-4.14 3.12 c-0.06 -0.06 -0.06 -0.18 -0.06 -0.18 z M5.22 19.380000000000003 l-2.22 1.68 l0 -0.6 c0 -0.12 0.06 -0.18 0.06 -0.18 l1.2 -0.9 l0.96 0 z M3 22.68 l0 -0.72 l3.48 -2.58 l0.6 0 l0 0.3 z M3 23.64 l4.08 -3.06 l0 0.72 l-4.08 3.06 l0 -0.72 z M40.38 24.96 l0 -0.72 l4.02 -3 s0.06 -0.06 0.12 -0.06 l0 0.72 l-4.08 3 s0 0.06 -0.06 0.06 z M19.8 24.479999999999997 l4.08 -3.06 l0 0.72 l-4.08 3.06 l0 -0.72 z M3 25.32 l4.08 -3.06 l0 0.72 l-4.08 3.06 l0 -0.72 z M40.38 25.92 l4.14 -3.06 c0 0.18 0.06 0.42 0.06 0.66 l-4.14 3.06 c-0.06 -0.18 -0.06 -0.36 -0.06 -0.54 l0 -0.12 z M19.8 26.159999999999997 l4.08 -3.06 c0.06 0.12 0.24 0.48 0.24 0.54 s-0.06 0.06 -0.06 0.06 l-4.2 3.12 c-0.06 -0.18 -0.06 -0.42 -0.06 -0.54 l0 -0.12 z M3.12 26.880000000000003 l0.06 0 l4.14 -3.06 c0 -0.06 0 -0.06 0.06 -0.06 c0 0 0.3 0.36 0.42 0.42 l-4.32 3.18 c-0.12 -0.06 -0.36 -0.3 -0.36 -0.48 z M40.8 27.299999999999997 l0 -0.06 l4.26 -3.18 c0.18 0.12 0.36 0.18 0.54 0.3 l-4.32 3.24 s-0.12 -0.06 -0.18 -0.06 c-0.12 -0.06 -0.24 -0.18 -0.3 -0.24 z M20.34 27.42 l4.26 -3.18 s0.06 -0.06 0.12 -0.06 c0.18 0.12 0.42 0.18 0.6 0.24 l-4.32 3.24 c-0.18 0 -0.66 -0.18 -0.66 -0.24 z M4.98 27.9 l-0.72 -0.18 l4.44 -3.3 l0.66 0.24 z M42.18 27.9 l4.38 -3.3 l-0.18 0.84 l-4.02 3 l0.06 -0.48 c-0.06 0 -0.24 -0.06 -0.24 -0.06 z M25.68 25.86 l-4.02 2.94 l0.18 -0.78 c0 -0.06 0 -0.06 0.06 -0.06 l3.9 -2.94 s0.06 -0.06 0.06 0 z M5.58 28.44 l4.14 -3.12 c0.06 0.18 0.12 0.54 0.12 0.66 l-4.14 3.06 l0 -0.12 c-0.06 -0.06 -0.12 -0.42 -0.12 -0.48 z M45.96 27.42 l-4.02 3 c0 -0.12 0.12 -0.78 0.24 -0.9 l3.9 -2.88 l0.06 -0.06 z M5.94 29.82 l4.08 -3.06 l0.18 0.66 l-4.14 3.06 l-0.06 0 l-0.12 -0.6 z M21.42 29.94 l4.02 -3 l-0.18 0.9 l-4.02 3 z M6.24 31.32 l4.08 -3.12 l0.18 0.66 l-4.14 3.06 l-0.06 0 l-0.12 -0.54 c0 -0.06 0 -0.06 0.06 -0.06 z M41.76 31.56 l3.96 -3 l-0.18 0.84 l0 0.06 l-3.96 2.88 c0 0.06 -0.06 0.06 -0.06 0.06 c0 -0.12 0.12 -0.78 0.24 -0.84 z M20.94 31.98 l4.08 -3 l-0.18 0.84 s-0.06 0 -0.06 0.06 l-3.96 2.94 l-0.06 0 z M6.54 32.760000000000005 l4.14 -3.12 l0.06 0.54 l0 0.12 l-4.14 3.06 c-0.06 -0.18 -0.06 -0.42 -0.06 -0.6 z M6.9 34.8 l-0.12 -0.66 l4.14 -3.06 l0.06 0 l0.12 0.54 c0 0.06 0 0.06 -0.06 0.12 z M7.08 35.58 l4.14 -3.06 l0.06 0 l0.12 0.54 c0 0.06 0 0.06 -0.06 0.12 l-4.14 3.06 z M7.38 37.019999999999996 l4.2 -3.06 l0.12 0.6 l-0.06 0.06 l-4.14 3.06 l-0.12 -0.6 l0 -0.06 z M7.74 38.46 l4.14 -3.06 c0 0.18 0.12 0.54 0.12 0.66 l-4.14 3.06 c-0.06 -0.18 -0.12 -0.54 -0.12 -0.66 z M31.92 35.519999999999996 l0 -0.06 c-0.06 0 -0.06 0.06 0 0.06 z M8.04 39.9 l4.14 -3.06 l0.12 0.6 l0 0.06 l-4.14 3.06 l-0.18 -0.6 z M8.34 41.34 l4.14 -3.06 l0.12 0.66 l-4.14 3.12 l-0.12 -0.6 l0 -0.12 z M8.64 42.78 l4.14 -3.06 l0.12 0.66 l-4.14 3.12 l-0.12 -0.6 l0 -0.12 z M8.94 44.28 l4.14 -3.12 c0.06 0.12 0.12 0.6 0.12 0.66 l-4.08 3.06 c-0.12 -0.12 -0.18 -0.48 -0.18 -0.6 z M30.24 45.12 l4.14 -3.06 l0.12 0.6 l-4.14 3.12 l-0.18 -0.6 c0 -0.06 0 -0.06 0.06 -0.06 z M9.3 45.66 l4.02 -3 l0.06 0 c0.06 0.18 0.12 0.6 0.12 0.6 l-4.08 3.06 c-0.12 -0.12 -0.18 -0.48 -0.18 -0.54 s0 -0.06 0.06 -0.12 z M30.54 46.56 l4.14 -3.06 c0.06 0.24 0.12 0.6 0.12 0.6 l-4.14 3.06 c-0.06 -0.12 -0.12 -0.48 -0.12 -0.6 z M9.6 47.1 l4.08 -3 c0.06 0.18 0.12 0.6 0.12 0.6 l-4.08 3.06 l-0.06 0.06 l-0.12 -0.6 c0 -0.06 0 -0.06 0.06 -0.12 z M30.84 48 l4.14 -3.06 l0.12 0.6 l-0.06 0.06 l-4.02 3 l-0.06 0.06 l0 -0.06 l-0.12 -0.54 l0 -0.06 z M9.84 48.6 l4.14 -3.06 c0.06 0.18 0.18 0.6 0.18 0.6 l-4.2 3.12 s0 -0.12 -0.06 -0.18 c0 -0.12 -0.06 -0.36 -0.06 -0.36 l0 -0.12 z M31.2 49.44 l4.08 -3.06 l0.12 0.6 c0 0.06 0 0.06 -0.06 0.06 l-4.08 3.06 l-0.12 -0.6 c0 -0.06 0 -0.06 0.06 -0.06 z M10.14 50.1 l4.14 -3.12 c0.06 0.12 0.12 0.42 0.12 0.6 l-4.14 3.06 z M31.5 50.88 l4.08 -3.06 l0 0 l0.12 0.54 l0 0.12 l-4.14 3.06 l-0.12 -0.6 z M10.56 52.08 l-0.12 -0.6 l4.08 -3.06 c0.06 0 0.06 -0.06 0.06 -0.06 l0.06 0.06 l0.12 0.54 c0 0.06 -0.06 0.06 -0.06 0.06 z M31.86 52.980000000000004 l-0.12 -0.6 l4.14 -3.06 c0 -0.06 0.06 -0.06 0.06 -0.06 l0.12 0.6 c0 0.06 0 0.06 -0.06 0.06 z M10.74 52.92 l4.14 -3.06 l0.06 0 l0.12 0.6 l-0.06 0 l-4.14 3.12 l-0.12 -0.6 l0 -0.06 z M32.04 53.82 l4.2 -3.12 l0.12 0.6 l-4.2 3.06 l0 -0.12 c-0.06 -0.12 -0.12 -0.42 -0.12 -0.42 z M11.1 54.36 l4.08 -3.12 c0.12 0.18 0.12 0.48 0.12 0.66 l-4.14 3.12 l-0.12 -0.6 c0 -0.06 0 -0.06 0.06 -0.06 z M32.46 55.8 l-0.12 -0.6 l4.14 -3.12 c0.06 0.24 0.18 0.66 0.18 0.66 z M11.4 55.8 l4.14 -3.06 c0 0.18 0.12 0.6 0.12 0.6 l-4.2 3.12 l-0.12 -0.6 c0 -0.06 0 -0.06 0.06 -0.06 z M32.7 56.64 l4.08 -3.12 c0.06 0 0.06 0.12 0.06 0.12 c0.06 0.18 0.12 0.54 0.12 0.54 l-4.2 3.06 c0 -0.12 -0.06 -0.48 -0.06 -0.6 z M11.7 57.24 l4.14 -3.06 c0.06 0.18 0.12 0.6 0.12 0.6 l-4.2 3.12 l-0.12 -0.6 c0 -0.06 0 -0.06 0.06 -0.06 z M33 58.08 l4.08 -3.06 l0.06 0 l0.12 0.6 l0 0 l-4.2 3.12 l-0.12 -0.6 c0 -0.06 0 -0.06 0.06 -0.06 z M12 58.74 c0 -0.06 -0.06 -0.06 0 -0.06 l4.14 -3.06 c0.06 0.18 0.12 0.36 0.24 0.54 l-4.26 3.12 c0 0.06 -0.12 -0.48 -0.12 -0.54 z M33.36 59.46 l4.26 -3.18 c0.12 0.18 0.36 0.24 0.54 0.36 l-4.38 3.24 c-0.06 0.06 -0.48 -0.36 -0.42 -0.42 z M12.66 59.88 l4.32 -3.24 l0.96 0 l-4.44 3.36 l-0.6 0 c-0.06 0 -0.18 -0.06 -0.24 -0.12 z M15.72 60 l-0.96 0 l4.44 -3.36 l1.02 0 z M16.98 60 l4.5 -3.36 l0.96 0 l-4.44 3.36 l-1.02 0 z M34.92 60 l4.44 -3.36 l1.02 0 l-4.5 3.36 l-0.96 0 z M37.14 60 l4.5 -3.36 l0.96 0 l-4.44 3.36 l-1.02 0 z M40.38 60 l-0.96 0 l4.44 -3.36 l0.42 0 l0 0.06 s-0.06 0.3 -0.12 0.48 z M20.22 60 l-0.96 0 l3.72 -2.82 l-0.18 0.9 z M41.64 60 l2.28 -1.74 l-0.18 0.9 s-0.78 0.54 -1.14 0.84 l-0.96 0 z M21.48 60 l1.02 -0.78 c-0.06 0.42 -0.54 0.78 -1.02 0.78 z"></path></g><g id="SvgjsG1156" featureKey="nameFeature-0" transform="matrix(0.8517141259202835,0,0,0.8517141259202835,-0.6813710570588608,133.77943373798814)" fill="#0278ae"><path d="M5.16 40 l-4.36 -28 l5.12 0 l2.48 16.12 l2.52 -16.12 l4.8 0 l2.48 16.12 l2.52 -16.12 l5.12 0 l-4.36 28 l-6.52 0 l-1.64 -10.6 l-1.64 10.6 l-6.52 0 z M37.692 40 l0 -10.4 l-6.36 -17.6 l5.36 0 l3.48 9.72 l3.52 -9.72 l5.36 0 l-6.32 17.52 l0 10.48 l-5.04 0 z M55.344 40 l0 -28 l5.36 0 l5.84 14.96 l0 -14.96 l5.04 0 l0 28 l-5.36 0 l-5.84 -14.96 l0 14.96 l-5.04 0 z M78.67599999999999 40 l0 -28 l13.72 0 l0 5.04 l-8.68 0 l0 6.44 l6.44 0 l0 5.04 l-6.44 0 l0 6.44 l8.68 0 l0 5.04 l-13.72 0 z M99.48799999999999 40 l0 -28 l11.96 0 l3.72 3.72 l0 10.2 l-2.16 2.2 l3.08 11.88 l-5.2 0 l-2.72 -10.36 l-3.64 0 l0 10.36 l-5.04 0 z M104.52799999999999 24.6 l4.84 0 l0.76 -0.76 l0 -6.04 l-0.76 -0.76 l-4.84 0 l0 7.56 z M128.1 40 l0 -22.96 l-5.32 0 l0 -5.04 l15.68 0 l0 5.04 l-5.32 0 l0 22.96 l-5.04 0 z M145.552 40 l0 -28 l13.72 0 l0 5.04 l-8.68 0 l0 6.44 l6.44 0 l0 5.04 l-6.44 0 l0 6.44 l8.68 0 l0 5.04 l-13.72 0 z M170.084 40 l-3.72 -3.72 l0 -20.56 l3.72 -3.72 l8.8 0 l3.72 3.72 l0 5.24 l-5.04 0 l0 -3.16 l-0.76 -0.76 l-4.64 0 l-0.76 0.76 l0 16.4 l0.76 0.76 l4.64 0 l0.76 -0.76 l0 -3.16 l5.04 0 l0 5.24 l-3.72 3.72 l-8.8 0 z M189.696 40 l0 -28 l5.04 0 l0 11.48 l6.16 0 l0 -11.48 l5.04 0 l0 28 l-5.04 0 l0 -11.48 l-6.16 0 l0 11.48 l-5.04 0 z M228.23999999999998 40 l-3.72 -3.72 l0 -5.24 l5.04 0 l0 3.16 l0.76 0.76 l4.08 0 l0.76 -0.76 l0 -4.92 l-0.76 -0.76 l-6.16 0 l-3.72 -3.72 l0 -9.08 l3.72 -3.72 l8.24 0 l3.72 3.72 l0 5.24 l-5.04 0 l0 -3.16 l-0.76 -0.76 l-4.08 0 l-0.76 0.76 l0 4.92 l0.76 0.76 l6.16 0 l3.72 3.72 l0 9.08 l-3.72 3.72 l-8.24 0 z M251.01199999999997 40 l-3.72 -3.72 l0 -20.56 l3.72 -3.72 l9.08 0 l3.72 3.72 l0 20.56 l-3.72 3.72 l-9.08 0 z M253.09199999999998 34.96 l4.92 0 l0.76 -0.76 l0 -16.4 l-0.76 -0.76 l-4.92 0 l-0.76 0.76 l0 16.4 z M270.904 40 l0 -28 l5.04 0 l0 22.96 l7.84 0 l0 5.04 l-12.88 0 z M294.59599999999995 40 l-3.72 -3.72 l0 -24.28 l5.04 0 l0 22.2 l0.76 0.76 l4.64 0 l0.76 -0.76 l0 -22.2 l5.04 0 l0 24.28 l-3.72 3.72 l-8.8 0 z M319.52799999999996 40 l0 -22.96 l-5.32 0 l0 -5.04 l15.68 0 l0 5.04 l-5.32 0 l0 22.96 l-5.04 0 z M336.97999999999996 40 l0 -28 l5.04 0 l0 28 l-5.04 0 z M352.83199999999994 40 l-3.72 -3.72 l0 -20.56 l3.72 -3.72 l9.08 0 l3.72 3.72 l0 20.56 l-3.72 3.72 l-9.08 0 z M354.9119999999999 34.96 l4.92 0 l0.76 -0.76 l0 -16.4 l-0.76 -0.76 l-4.92 0 l-0.76 0.76 l0 16.4 z M372.724 40 l0 -28 l5.36 0 l5.84 14.96 l0 -14.96 l5.04 0 l0 28 l-5.36 0 l-5.84 -14.96 l0 14.96 l-5.04 0 z M399.77599999999995 40 l-3.72 -3.72 l0 -5.24 l5.04 0 l0 3.16 l0.76 0.76 l4.08 0 l0.76 -0.76 l0 -4.92 l-0.76 -0.76 l-6.16 0 l-3.72 -3.72 l0 -9.08 l3.72 -3.72 l8.24 0 l3.72 3.72 l0 5.24 l-5.04 0 l0 -3.16 l-0.76 -0.76 l-4.08 0 l-0.76 0.76 l0 4.92 l0.76 0.76 l6.16 0 l3.72 3.72 l0 9.08 l-3.72 3.72 l-8.24 0 z"></path></g>
			</g>
		</svg>
	